<?xml version="1.0" encoding="utf-8"?>
<!-- Generator: Adobe Illustrator 24.1.2, SVG Export Plug-In . SVG Version: 6.00 Build 0)  -->
<svg version="1.1" id="Слой_1" xmlns="http://www.w3.org/2000/svg" xmlns:xlink="http://www.w3.org/1999/xlink" x="0px" y="0px"
	 viewBox="0 0 95.27 183.03" style="enable-background:new 0 0 95.27 183.03;" xml:space="preserve">
<style type="text/css">
	.st0{display:none;fill:#9C50FF;}
	.st1{display:none;fill:#FFFFFF;}
	.st2{display:none;}
	.st3{display:inline;fill:#8200F4;}
	.st4{display:inline;}
	.st5{fill:#FFFFFF;}
	.st6{display:inline;fill:#FFFFFF;}
	.st7{display:none;fill:#8200F4;}
	.st8{display:none;fill:#6E26F9;}
	.st9{display:inline;fill:#6E26F9;}
	.st10{display:inline;fill:none;stroke:#FFFFFF;stroke-width:5;stroke-miterlimit:10;}
	.st11{display:inline;fill:#6E26F9;stroke:#FFFFFF;stroke-width:5;stroke-miterlimit:10;}
</style>
<rect x="-1326.86" y="-1722.67" class="st0" width="560" height="960.5"/>
<path class="st1" d="M-982.37-1352.63l-53.93,15.74v10.49l5.92,33.28l-16.24,14.03l-16.86-14.03l5.92-33.28v-10.49l-53.92-15.74
	c-1.9,6.26-2.4,27.57,10.27,32.52c12.51,4.88,19.7,6.1,25.43,7.4c-2.69,9.21-3.48,23.46-3.72,34.89v72.92l-53.54-15.71v-143.74
	c2.08-44.23,29.63-80.71,66.16-90.61l-21.47-81.08h82.85l-21.47,81.09c38.01,10.29,66.29,49.36,66.29,95.99c0,0.15,0,0.3,0,0.45
	v47.23h0v90.67l-53.54,15.71v-72.93l-0.03,0.01c-0.24-11.43-1.03-25.68-3.72-34.89c5.74-1.3,12.92-2.51,25.43-7.4
	c11.71-4.58,12.17-23.12,10.67-30.85"/>
<g class="st2">
	<rect x="-834.67" y="-1352.89" class="st3" width="67.81" height="67.81"/>
	<rect x="-902.48" y="-1420.7" class="st3" width="67.81" height="67.81"/>
	<rect x="-834.67" y="-1488.51" class="st3" width="67.81" height="67.81"/>
</g>
<g class="st2">
	<rect x="-1259.05" y="-1448.98" class="st3" width="67.81" height="67.81"/>
	<rect x="-1326.86" y="-1517.25" class="st3" width="67.81" height="67.81"/>
	<rect x="-1259.05" y="-1585.06" class="st3" width="67.81" height="67.81"/>
	<rect x="-1326.86" y="-1652.86" class="st3" width="67.81" height="67.81"/>
	<rect x="-1259.05" y="-1721.13" class="st3" width="67.81" height="67.81"/>
</g>
<g class="st2">
	
		<text transform="matrix(0.9398 0 0 1 -1236.2672 -1088.0936)" class="st6" style="font-family:'DrukTextWideCyr-Bold'; font-size:52.5491px;">EPIC HERO</text>
	
		<text transform="matrix(0.9398 0 0 1 -1233.713 -1051.7245)" class="st6" style="font-family:'Geometric706BT-BlackCondensedB'; font-size:31.9277px;">indie game development studio</text>
</g>
<g class="st2">
	<g class="st4">
		<polygon class="st5" points="-857.46,-1011.78 -1169.37,-1011.78 -1169.37,-992.49 -920.2,-992.49 		"/>
		<polygon class="st5" points="-857.46,-1014.3 -1169.37,-1014.3 -1169.37,-1033.59 -920.2,-1033.59 		"/>
		<path class="st5" d="M-1179.63-987.33h-3.13c-4.46,0-8.07-3.61-8.07-8.07v-35.28c0-4.46,3.61-8.07,8.07-8.07h3.13
			c4.46,0,8.07,3.61,8.07,8.07v35.28C-1171.56-990.94-1175.18-987.33-1179.63-987.33z"/>
		<rect x="-1220.32" y="-1019.24" class="st5" width="27.3" height="12.39"/>
	</g>
	<path class="st6" d="M-1227.48-1003.62h-1.34c-2.7,0-4.89-2.19-4.89-4.89v-9.07c0-2.7,2.19-4.89,4.89-4.89h1.34
		c2.7,0,4.89,2.19,4.89,4.89v9.07C-1222.6-1005.81-1224.78-1003.62-1227.48-1003.62z"/>
</g>
<rect x="-1326.86" y="-897.79" transform="matrix(-1.836970e-16 1 -1 -1.836970e-16 -2156.8394 429.0772)" class="st7" width="67.81" height="67.81"/>
<rect x="-1259.05" y="-829.98" transform="matrix(-1.836970e-16 1 -1 -1.836970e-16 -2021.2224 429.0772)" class="st8" width="67.81" height="67.81"/>
<rect x="-834.67" y="-1721.13" transform="matrix(-1.836970e-16 1 -1 -1.836970e-16 -2487.9907 -886.457)" class="st7" width="67.81" height="67.81"/>
<g class="st2">
	
		<rect x="-1096.33" y="-1654.08" transform="matrix(3.267949e-07 1 -1 3.267949e-07 -2682.5991 -557.7442)" class="st3" width="67.81" height="67.81"/>
	
		<rect x="-1028.52" y="-1721.88" transform="matrix(3.267949e-07 1 -1 3.267949e-07 -2682.5991 -693.3612)" class="st3" width="67.81" height="67.81"/>
	
		<rect x="-960.71" y="-1654.08" transform="matrix(3.267949e-07 1 -1 3.267949e-07 -2546.9822 -693.3613)" class="st3" width="67.81" height="67.81"/>
</g>
<g class="st2">
	<rect x="-1326.86" y="-1251.18" class="st3" width="67.81" height="67.81"/>
	<rect x="-1259.05" y="-1318.99" class="st3" width="67.81" height="67.81"/>
</g>
<rect x="-264.23" y="-48.18" class="st0" width="1920" height="1080"/>
<g class="st2">
	
		<rect x="-264.23" y="798.97" transform="matrix(-1.836970e-16 1 -1 -1.836970e-16 767.5817 1063.2004)" class="st9" width="232.85" height="232.85"/>
	
		<rect x="201.47" y="798.97" transform="matrix(-1.836970e-16 1 -1 -1.836970e-16 1233.2838 597.4983)" class="st9" width="232.85" height="232.85"/>
	
		<rect x="-31.38" y="566.11" transform="matrix(-1.836970e-16 1 -1 -1.836970e-16 767.5817 597.4983)" class="st9" width="232.85" height="232.85"/>
</g>
<path class="st5" d="M83.28,101.38l-29.81,8.7v5.8l3.27,18.39l-8.98,7.75l-9.32-7.75l3.27-18.39v-5.8l-29.81-8.7
	c-1.05,3.46-1.33,15.24,5.67,17.97c6.91,2.7,10.89,3.37,14.06,4.09c-1.49,5.09-1.92,12.97-2.05,19.28v40.3L0,174.35V94.9
	c1.15-24.45,16.38-44.61,36.57-50.08L24.7,0H70.5L58.63,44.82c21.01,5.69,36.64,27.29,36.64,53.06c0,0.08,0,0.16,0,0.25v26.1h0
	v50.12l-29.6,8.68v-40.31l-0.02,0.01c-0.13-6.32-0.57-14.19-2.05-19.28c3.17-0.72,7.14-1.39,14.06-4.09
	c6.47-2.53,6.72-12.78,5.9-17.05"/>
<g class="st2">
	
		<text transform="matrix(0.9398 0 0 1 -134.1187 516.1718)" class="st6" style="font-family:'DrukTextWideCyr-Bold'; font-size:115.1228px;">EPIC HERO</text>
	
		<text transform="matrix(0.9398 0 0 1 -128.523 595.8475)" class="st6" style="font-family:'Geometric706BT-BlackCondensedB'; font-size:69.9461px;">indie game development studio</text>
</g>
<g class="st2">
	<g class="st4">
		<polygon class="st5" points="695.77,683.36 12.45,683.36 12.45,725.62 558.32,725.62 		"/>
		<polygon class="st5" points="695.77,677.84 12.45,677.84 12.45,635.57 558.32,635.57 		"/>
		<path class="st5" d="M-0.43,736.93H-26.5c-4.46,0-8.07-3.61-8.07-8.07v-96.52c0-4.46,3.61-8.07,8.07-8.07h26.07
			c4.46,0,8.07,3.61,8.07,8.07v96.52C7.64,733.31,4.02,736.93-0.43,736.93z"/>
		<rect x="-99.18" y="667.02" class="st5" width="59.81" height="27.15"/>
	</g>
	<path class="st6" d="M-109.05,701.24h-14.58c-2.7,0-4.89-2.19-4.89-4.89v-31.5c0-2.7,2.19-4.89,4.89-4.89h14.58
		c2.7,0,4.89,2.19,4.89,4.89v31.5C-104.17,699.05-106.36,701.24-109.05,701.24z"/>
</g>
<g class="st2">
	<path class="st10" d="M1218.83,148.75h-161.39c-19.86,0-35.96-16.1-35.96-35.96v0c0-19.86,16.1-35.96,35.96-35.96h161.39
		c19.86,0,35.96,16.1,35.96,35.96v0C1254.79,132.65,1238.69,148.75,1218.83,148.75z"/>
	
		<text transform="matrix(0.9398 0 0 1 1088.634 128.8353)" class="st6" style="font-family:'Geometric706BT-BlackCondensedB'; font-size:49.7587px;">log in</text>
</g>
<g class="st2">
	<path class="st10" d="M1505.49,148.75H1344.1c-19.86,0-35.96-16.1-35.96-35.96v0c0-19.86,16.1-35.96,35.96-35.96h161.39
		c19.86,0,35.96,16.1,35.96,35.96v0C1541.46,132.65,1525.36,148.75,1505.49,148.75z"/>
	
		<text transform="matrix(0.9398 0 0 1 1366.5823 128.8353)" class="st6" style="font-family:'Geometric706BT-BlackCondensedB'; font-size:49.7587px;">games</text>
</g>
<g class="st2">
	<path class="st10" d="M930.4,148.75H769c-19.86,0-35.96-16.1-35.96-35.96v0c0-19.86,16.1-35.96,35.96-35.96H930.4
		c19.86,0,35.96,16.1,35.96,35.96v0C966.36,132.65,950.26,148.75,930.4,148.75z"/>
	
		<text transform="matrix(0.9398 0 0 1 771.8704 128.8353)" class="st6" style="font-family:'Geometric706BT-BlackCondensedB'; font-size:49.7587px;">contacts</text>
</g>
<g class="st2">
	<path class="st10" d="M634.14,148.75H472.75c-19.86,0-35.96-16.1-35.96-35.96v0c0-19.86,16.1-35.96,35.96-35.96h161.39
		c19.86,0,35.96,16.1,35.96,35.96v0C670.11,132.65,654,148.75,634.14,148.75z"/>
	
		<text transform="matrix(0.9398 0 0 1 479.1893 128.8354)" class="st6" style="font-family:'Geometric706BT-BlackCondensedB'; font-size:49.7587px;">support</text>
</g>
<g class="st2">
	<path class="st10" d="M1427.44,909.83H943.56c-19.86,0-35.96-16.1-35.96-35.96V374.68c0-19.86,16.1-35.96,35.96-35.96h483.88
		c19.86,0,35.96,16.1,35.96,35.96v499.19C1463.4,893.72,1447.3,909.83,1427.44,909.83z"/>
	<text transform="matrix(0.9398 0 0 1 1146.7883 442.011)" class="st4"><tspan x="0" y="0" class="st5" style="font-family:'DrukTextWideCyr-Medium'; font-size:41.8726px;">Join </tspan><tspan x="-99.42" y="50.25" class="st5" style="font-family:'DrukTextWideCyr-Medium'; font-size:41.8726px;">to </tspan><tspan x="-53.7" y="50.25" style="fill:#210089; font-family:'DrukTextWideCyr-Medium'; font-size:41.8726px;">Aiven`s story </tspan><tspan x="-53.62" y="100.49" class="st5" style="font-family:'DrukTextWideCyr-Medium'; font-size:41.8726px;">open beta</tspan></text>
</g>
<g class="st2">
	<path class="st10" d="M1375.86,683.36H995.13c-19.86,0-35.96-16.1-35.96-35.96v0c0-19.86,16.1-35.96,35.96-35.96h380.73
		c19.86,0,35.96,16.1,35.96,35.96v0C1411.83,667.26,1395.73,683.36,1375.86,683.36z"/>
	
		<text transform="matrix(0.9398 0 0 1 1133.319 663.4491)" class="st6" style="font-family:'Geometric706BT-BlackCondensedB'; font-size:49.7587px;">email</text>
</g>
<g class="st2">
	<path class="st11" d="M1290.73,834.93h-220.67c-19.86,0-35.96-16.1-35.96-35.96v0c0-19.86,16.1-35.96,35.96-35.96h220.67
		c19.86,0,35.96,16.1,35.96,35.96v0C1326.69,818.83,1310.59,834.93,1290.73,834.93z"/>
	
		<text transform="matrix(0.9398 0 0 1 1148.2678 815.0179)" class="st6" style="font-family:'Geometric706BT-BlackCondensedB'; font-size:49.7587px;">join</text>
</g>
</svg>
