<?xml version="1.0" encoding="utf-8"?>
<!-- Generator: Adobe Illustrator 24.1.2, SVG Export Plug-In . SVG Version: 6.00 Build 0)  -->
<svg version="1.1" id="Слой_1" xmlns="http://www.w3.org/2000/svg" xmlns:xlink="http://www.w3.org/1999/xlink" x="0px" y="0px"
	 viewBox="0 0 824.29 129.18" style="enable-background:new 0 0 824.29 129.18;" xml:space="preserve">
<style type="text/css">
	.st0{display:none;fill:#9C50FF;}
	.st1{display:none;fill:#FFFFFF;}
	.st2{display:none;}
	.st3{display:inline;fill:#8200F4;}
	.st4{display:inline;}
	.st5{fill:#FFFFFF;}
	.st6{display:inline;fill:#FFFFFF;}
	.st7{display:none;fill:#8200F4;}
	.st8{display:none;fill:#6E26F9;}
	.st9{display:inline;fill:#6E26F9;}
	.st10{display:inline;fill:none;stroke:#FFFFFF;stroke-width:5;stroke-miterlimit:10;}
	.st11{display:inline;fill:#6E26F9;stroke:#FFFFFF;stroke-width:5;stroke-miterlimit:10;}
</style>
<rect x="-1198.34" y="-2338.43" class="st0" width="560" height="960.5"/>
<path class="st1" d="M-853.85-1968.39l-53.93,15.74v10.49l5.92,33.28l-16.24,14.03l-16.86-14.03l5.92-33.28v-10.49l-53.92-15.74
	c-1.9,6.26-2.4,27.57,10.27,32.52c12.51,4.88,19.7,6.1,25.43,7.4c-2.69,9.21-3.48,23.46-3.72,34.89v72.92l-53.54-15.71v-143.74
	c2.08-44.23,29.63-80.71,66.16-90.61l-21.47-81.08h82.85l-21.47,81.09c38.01,10.29,66.29,49.36,66.29,95.99c0,0.15,0,0.3,0,0.45
	v47.23h0v90.67l-53.54,15.71v-72.93l-0.03,0.01c-0.24-11.43-1.03-25.68-3.72-34.89c5.74-1.3,12.92-2.51,25.43-7.4
	c11.71-4.58,12.17-23.12,10.67-30.85"/>
<g class="st2">
	<rect x="-706.15" y="-1968.65" class="st3" width="67.81" height="67.81"/>
	<rect x="-773.96" y="-2036.46" class="st3" width="67.81" height="67.81"/>
	<rect x="-706.15" y="-2104.27" class="st3" width="67.81" height="67.81"/>
</g>
<g class="st2">
	<rect x="-1130.53" y="-2064.74" class="st3" width="67.81" height="67.81"/>
	<rect x="-1198.34" y="-2133.01" class="st3" width="67.81" height="67.81"/>
	<rect x="-1130.53" y="-2200.81" class="st3" width="67.81" height="67.81"/>
	<rect x="-1198.34" y="-2268.62" class="st3" width="67.81" height="67.81"/>
	<rect x="-1130.53" y="-2336.89" class="st3" width="67.81" height="67.81"/>
</g>
<g class="st2">
	
		<text transform="matrix(0.9398 0 0 1 -1107.7443 -1703.8513)" class="st6" style="font-family:'DrukTextWideCyr-Bold'; font-size:52.5491px;">EPIC HERO</text>
	
		<text transform="matrix(0.9398 0 0 1 -1105.1901 -1667.4822)" class="st6" style="font-family:'Geometric706BT-BlackCondensedB'; font-size:31.9277px;">indie game development studio</text>
</g>
<g class="st2">
	<g class="st4">
		<polygon class="st5" points="-728.93,-1627.54 -1040.84,-1627.54 -1040.84,-1608.24 -791.67,-1608.24 		"/>
		<polygon class="st5" points="-728.93,-1630.06 -1040.84,-1630.06 -1040.84,-1649.35 -791.67,-1649.35 		"/>
		<path class="st5" d="M-1051.11-1603.08h-3.13c-4.46,0-8.07-3.61-8.07-8.07v-35.28c0-4.46,3.61-8.07,8.07-8.07h3.13
			c4.46,0,8.07,3.61,8.07,8.07v35.28C-1043.04-1606.7-1046.65-1603.08-1051.11-1603.08z"/>
		<rect x="-1091.8" y="-1634.99" class="st5" width="27.3" height="12.39"/>
	</g>
	<path class="st6" d="M-1098.96-1619.38h-1.34c-2.7,0-4.89-2.19-4.89-4.89v-9.07c0-2.7,2.19-4.89,4.89-4.89h1.34
		c2.7,0,4.89,2.19,4.89,4.89v9.07C-1094.07-1621.56-1096.26-1619.38-1098.96-1619.38z"/>
</g>
<rect x="-1198.34" y="-1513.54" transform="matrix(-1.836970e-16 1 -1 -1.836970e-16 -2644.0742 -315.2036)" class="st7" width="67.81" height="67.81"/>
<rect x="-1130.53" y="-1445.73" transform="matrix(-1.836970e-16 1 -1 -1.836970e-16 -2508.457 -315.2036)" class="st8" width="67.81" height="67.81"/>
<rect x="-706.15" y="-2336.89" transform="matrix(-1.836970e-16 1 -1 -1.836970e-16 -2975.2253 -1630.7378)" class="st7" width="67.81" height="67.81"/>
<g class="st2">
	
		<rect x="-967.81" y="-2269.83" transform="matrix(3.267949e-07 1 -1 3.267949e-07 -3169.8337 -1302.0248)" class="st3" width="67.81" height="67.81"/>
	
		<rect x="-900" y="-2337.64" transform="matrix(3.267949e-07 1 -1 3.267949e-07 -3169.8337 -1437.6418)" class="st3" width="67.81" height="67.81"/>
	
		<rect x="-832.19" y="-2269.83" transform="matrix(3.267949e-07 1 -1 3.267949e-07 -3034.2168 -1437.6418)" class="st3" width="67.81" height="67.81"/>
</g>
<g class="st2">
	<rect x="-1198.34" y="-1866.94" class="st3" width="67.81" height="67.81"/>
	<rect x="-1130.53" y="-1934.75" class="st3" width="67.81" height="67.81"/>
</g>
<rect x="-135.71" y="-663.94" class="st0" width="1920" height="1080"/>
<g class="st2">
	
		<rect x="-135.71" y="183.21" transform="matrix(-1.836970e-16 1 -1 -1.836970e-16 280.347 318.9196)" class="st9" width="232.85" height="232.85"/>
	
		<rect x="329.99" y="183.21" transform="matrix(-1.836970e-16 1 -1 -1.836970e-16 746.0491 -146.7825)" class="st9" width="232.85" height="232.85"/>
	
		<rect x="97.14" y="-49.64" transform="matrix(-1.836970e-16 1 -1 -1.836970e-16 280.347 -146.7825)" class="st9" width="232.85" height="232.85"/>
</g>
<path class="st1" d="M164.17-514.38l-29.81,8.7v5.8l3.27,18.39l-8.98,7.75l-9.32-7.75l3.27-18.39v-5.8l-29.81-8.7
	c-1.05,3.46-1.33,15.24,5.67,17.97c6.91,2.7,10.89,3.37,14.06,4.09c-1.49,5.09-1.92,12.97-2.05,19.28v40.3l-29.6-8.68v-79.45
	c1.15-24.45,16.38-44.61,36.57-50.08l-11.87-44.82h45.79l-11.87,44.82c21.01,5.69,36.64,27.29,36.64,53.06c0,0.08,0,0.16,0,0.25
	v26.1h0v50.12l-29.6,8.68v-40.31l-0.02,0.01c-0.13-6.32-0.57-14.19-2.05-19.28c3.17-0.72,7.14-1.39,14.06-4.09
	c6.47-2.53,6.72-12.78,5.9-17.05"/>
<g class="st2">
	
		<text transform="matrix(0.9398 0 0 1 -5.5957 -99.586)" class="st6" style="font-family:'DrukTextWideCyr-Bold'; font-size:115.1228px;">EPIC HERO</text>
	
		<text transform="matrix(0.9398 0 0 1 3.410209e-05 -19.9102)" class="st6" style="font-family:'Geometric706BT-BlackCondensedB'; font-size:69.9461px;">indie game development studio</text>
</g>
<g>
	<g>
		<polygon class="st5" points="824.29,67.6 140.97,67.6 140.97,109.87 686.84,109.87 		"/>
		<polygon class="st5" points="824.29,62.08 140.97,62.08 140.97,19.82 686.84,19.82 		"/>
		<path class="st5" d="M128.09,121.17h-26.07c-4.46,0-8.07-3.61-8.07-8.07V16.58c0-4.46,3.61-8.07,8.07-8.07h26.07
			c4.46,0,8.07,3.61,8.07,8.07v96.52C136.16,117.56,132.55,121.17,128.09,121.17z"/>
		<rect x="29.34" y="51.27" class="st5" width="59.81" height="27.15"/>
	</g>
	<path class="st5" d="M19.47,85.48H4.89c-2.7,0-4.89-2.19-4.89-4.89l0-31.5c0-2.7,2.19-4.89,4.89-4.89h14.58
		c2.7,0,4.89,2.19,4.89,4.89v31.5C24.36,83.29,22.17,85.48,19.47,85.48z"/>
</g>
<g class="st2">
	<path class="st10" d="M1347.35-467.01h-161.39c-19.86,0-35.96-16.1-35.96-35.96v0c0-19.86,16.1-35.96,35.96-35.96h161.39
		c19.86,0,35.96,16.1,35.96,35.96v0C1383.31-483.11,1367.21-467.01,1347.35-467.01z"/>
	
		<text transform="matrix(0.9398 0 0 1 1217.1571 -486.9225)" class="st6" style="font-family:'Geometric706BT-BlackCondensedB'; font-size:49.7587px;">log in</text>
</g>
<g class="st2">
	<path class="st10" d="M1634.02-467.01h-161.39c-19.86,0-35.96-16.1-35.96-35.96v0c0-19.86,16.1-35.96,35.96-35.96h161.39
		c19.86,0,35.96,16.1,35.96,35.96v0C1669.98-483.11,1653.88-467.01,1634.02-467.01z"/>
	
		<text transform="matrix(0.9398 0 0 1 1495.1053 -486.9225)" class="st6" style="font-family:'Geometric706BT-BlackCondensedB'; font-size:49.7587px;">games</text>
</g>
<g class="st2">
	<path class="st10" d="M1058.92-467.01H897.53c-19.86,0-35.96-16.1-35.96-35.96v0c0-19.86,16.1-35.96,35.96-35.96h161.39
		c19.86,0,35.96,16.1,35.96,35.96v0C1094.88-483.11,1078.78-467.01,1058.92-467.01z"/>
	
		<text transform="matrix(0.9398 0 0 1 900.3934 -486.9225)" class="st6" style="font-family:'Geometric706BT-BlackCondensedB'; font-size:49.7587px;">contacts</text>
</g>
<g class="st2">
	<path class="st10" d="M762.67-467.01H601.27c-19.86,0-35.96-16.1-35.96-35.96v0c0-19.86,16.1-35.96,35.96-35.96h161.39
		c19.86,0,35.96,16.1,35.96,35.96v0C798.63-483.11,782.53-467.01,762.67-467.01z"/>
	
		<text transform="matrix(0.9398 0 0 1 607.7123 -486.9224)" class="st6" style="font-family:'Geometric706BT-BlackCondensedB'; font-size:49.7587px;">support</text>
</g>
<g class="st2">
	<path class="st10" d="M1555.96,294.07h-483.88c-19.86,0-35.96-16.1-35.96-35.96v-499.19c0-19.86,16.1-35.96,35.96-35.96h483.88
		c19.86,0,35.96,16.1,35.96,35.96V258.1C1591.93,277.97,1575.83,294.07,1555.96,294.07z"/>
	<text transform="matrix(0.9398 0 0 1 1275.3114 -173.7467)" class="st4"><tspan x="0" y="0" class="st5" style="font-family:'DrukTextWideCyr-Medium'; font-size:41.8726px;">Join </tspan><tspan x="-99.42" y="50.25" class="st5" style="font-family:'DrukTextWideCyr-Medium'; font-size:41.8726px;">to </tspan><tspan x="-53.7" y="50.25" style="fill:#210089; font-family:'DrukTextWideCyr-Medium'; font-size:41.8726px;">Aiven`s story </tspan><tspan x="-53.62" y="100.49" class="st5" style="font-family:'DrukTextWideCyr-Medium'; font-size:41.8726px;">open beta</tspan></text>
</g>
<g class="st2">
	<path class="st10" d="M1504.39,67.6h-380.73c-19.86,0-35.96-16.1-35.96-35.96v0c0-19.86,16.1-35.96,35.96-35.96h380.73
		c19.86,0,35.96,16.1,35.96,35.96v0C1540.35,51.5,1524.25,67.6,1504.39,67.6z"/>
	
		<text transform="matrix(0.9398 0 0 1 1261.8419 47.6913)" class="st6" style="font-family:'Geometric706BT-BlackCondensedB'; font-size:49.7587px;">email</text>
</g>
<g class="st2">
	<path class="st11" d="M1419.25,219.17h-220.67c-19.86,0-35.96-16.1-35.96-35.96v0c0-19.86,16.1-35.96,35.96-35.96h220.67
		c19.86,0,35.96,16.1,35.96,35.96v0C1455.22,203.07,1439.11,219.17,1419.25,219.17z"/>
	
		<text transform="matrix(0.9398 0 0 1 1276.7908 199.2601)" class="st6" style="font-family:'Geometric706BT-BlackCondensedB'; font-size:49.7587px;">join</text>
</g>
</svg>
