<?xml version="1.0" encoding="utf-8"?>
<!-- Generator: Adobe Illustrator 24.1.2, SVG Export Plug-In . SVG Version: 6.00 Build 0)  -->
<svg version="1.1" id="Слой_1" xmlns="http://www.w3.org/2000/svg" xmlns:xlink="http://www.w3.org/1999/xlink" x="0px" y="0px"
	 viewBox="0 0 960 465.7" style="enable-background:new 0 0 960 465.7;" xml:space="preserve">
<style type="text/css">
	.st0{display:none;fill:#9C50FF;}
	.st1{display:none;fill:#FFFFFF;}
	.st2{display:none;}
	.st3{display:inline;fill:#8200F4;}
	.st4{display:inline;}
	.st5{fill:#FFFFFF;}
	.st6{display:inline;fill:#FFFFFF;}
	.st7{display:none;fill:#8200F4;}
	.st8{display:none;fill:#6E26F9;}
	.st9{fill:#6E26F9;}
	.st10{font-family:'Geometric706BT-BlackCondensedB';}
	.st11{font-size:69.9461px;}
	.st12{display:inline;fill:none;stroke:#FFFFFF;stroke-width:5;stroke-miterlimit:10;}
	.st13{display:inline;fill:#6E26F9;stroke:#FFFFFF;stroke-width:5;stroke-miterlimit:10;}
</style>
<rect x="-1062.63" y="-2288.78" class="st0" width="560" height="960.5"/>
<path class="st1" d="M-718.14-1918.74l-53.93,15.74v10.49l5.92,33.28l-16.24,14.03l-16.86-14.03l5.92-33.28V-1903l-53.92-15.74
	c-1.9,6.26-2.4,27.57,10.27,32.52c12.51,4.88,19.7,6.1,25.43,7.4c-2.69,9.21-3.48,23.46-3.72,34.89v72.92l-53.54-15.71v-143.74
	c2.08-44.23,29.63-80.71,66.16-90.6l-21.47-81.08h82.85l-21.47,81.09c38.01,10.29,66.29,49.36,66.29,95.99c0,0.15,0,0.3,0,0.45
	v47.23h0v90.67l-53.54,15.71v-72.93l-0.03,0.01c-0.24-11.43-1.03-25.68-3.72-34.89c5.74-1.3,12.92-2.51,25.43-7.4
	c11.71-4.58,12.17-23.12,10.67-30.85"/>
<g class="st2">
	<rect x="-570.44" y="-1919.01" class="st3" width="67.81" height="67.81"/>
	<rect x="-638.24" y="-1986.82" class="st3" width="67.81" height="67.81"/>
	<rect x="-570.44" y="-2054.63" class="st3" width="67.81" height="67.81"/>
</g>
<g class="st2">
	<rect x="-994.82" y="-2015.1" class="st3" width="67.81" height="67.81"/>
	<rect x="-1062.63" y="-2083.36" class="st3" width="67.81" height="67.81"/>
	<rect x="-994.82" y="-2151.17" class="st3" width="67.81" height="67.81"/>
	<rect x="-1062.63" y="-2218.98" class="st3" width="67.81" height="67.81"/>
	<rect x="-994.82" y="-2287.24" class="st3" width="67.81" height="67.81"/>
</g>
<g class="st2">
	
		<text transform="matrix(0.9398 0 0 1 -972.0323 -1654.208)" class="st6" style="font-family:'DrukTextWideCyr-Bold'; font-size:52.5491px;">EPIC HERO</text>
	<text transform="matrix(0.9398 0 0 1 -969.4781 -1617.8389)" class="st6 st10" style="font-size:31.9277px;">indie game development studio</text>
</g>
<g class="st2">
	<g class="st4">
		<polygon class="st5" points="-593.22,-1577.89 -905.13,-1577.89 -905.13,-1558.6 -655.96,-1558.6 		"/>
		<polygon class="st5" points="-593.22,-1580.41 -905.13,-1580.41 -905.13,-1599.71 -655.96,-1599.71 		"/>
		<path class="st5" d="M-915.4-1553.44h-3.13c-4.46,0-8.07-3.61-8.07-8.07v-35.28c0-4.46,3.61-8.07,8.07-8.07h3.13
			c4.46,0,8.07,3.61,8.07,8.07v35.28C-907.33-1557.05-910.94-1553.44-915.4-1553.44z"/>
		<rect x="-956.09" y="-1585.35" class="st5" width="27.3" height="12.39"/>
	</g>
	<path class="st6" d="M-963.25-1569.73h-1.34c-2.7,0-4.89-2.19-4.89-4.89v-9.07c0-2.7,2.19-4.89,4.89-4.89h1.34
		c2.7,0,4.89,2.19,4.89,4.89v9.07C-958.36-1571.92-960.55-1569.73-963.25-1569.73z"/>
</g>
<rect x="-1062.63" y="-1463.9" transform="matrix(-1.836970e-16 1 -1 -1.836970e-16 -2458.719 -401.2721)" class="st7" width="67.81" height="67.81"/>
<rect x="-994.82" y="-1396.09" transform="matrix(-1.836970e-16 1 -1 -1.836970e-16 -2323.1018 -401.2721)" class="st8" width="67.81" height="67.81"/>
<rect x="-570.44" y="-2287.24" transform="matrix(-1.836970e-16 1 -1 -1.836970e-16 -2789.8701 -1716.8064)" class="st7" width="67.81" height="67.81"/>
<g class="st2">
	
		<rect x="-832.1" y="-2220.19" transform="matrix(3.267949e-07 1 -1 3.267949e-07 -2984.4785 -1388.0934)" class="st3" width="67.81" height="67.81"/>
	
		<rect x="-764.29" y="-2288" transform="matrix(3.267949e-07 1 -1 3.267949e-07 -2984.4788 -1523.7104)" class="st3" width="67.81" height="67.81"/>
	
		<rect x="-696.48" y="-2220.19" transform="matrix(3.267949e-07 1 -1 3.267949e-07 -2848.8618 -1523.7104)" class="st3" width="67.81" height="67.81"/>
</g>
<g class="st2">
	<rect x="-1062.63" y="-1817.3" class="st3" width="67.81" height="67.81"/>
	<rect x="-994.82" y="-1885.1" class="st3" width="67.81" height="67.81"/>
</g>
<rect y="-614.3" class="st0" width="1920" height="1080"/>
<g>
	
		<rect x="0" y="232.85" transform="matrix(-1.836970e-16 1 -1 -1.836970e-16 465.7021 232.8511)" class="st9" width="232.85" height="232.85"/>
	
		<rect x="465.7" y="232.85" transform="matrix(-1.836970e-16 1 -1 -1.836970e-16 931.4042 -232.8511)" class="st9" width="232.85" height="232.85"/>
	
		<rect x="232.85" y="0" transform="matrix(-1.836970e-16 1 -1 -1.836970e-16 465.7021 -232.8511)" class="st9" width="232.85" height="232.85"/>
</g>
<path class="st1" d="M299.88-464.74l-29.81,8.7v5.8l3.27,18.39l-8.98,7.75l-9.32-7.75l3.27-18.39v-5.8l-29.81-8.7
	c-1.05,3.46-1.33,15.24,5.67,17.97c6.91,2.7,10.89,3.37,14.06,4.09c-1.49,5.09-1.92,12.97-2.05,19.28v40.3l-29.6-8.68v-79.45
	c1.15-24.45,16.38-44.61,36.57-50.08l-11.87-44.82h45.79l-11.87,44.82c21.01,5.69,36.64,27.29,36.64,53.06c0,0.08,0,0.16,0,0.25
	v26.1h0v50.12l-29.6,8.68v-40.31l-0.02,0.01c-0.13-6.32-0.57-14.19-2.05-19.28c3.17-0.72,7.14-1.39,14.06-4.09
	c6.47-2.53,6.72-12.78,5.9-17.05"/>
<g class="st2">
	
		<text transform="matrix(0.9398 0 0 1 130.1162 -49.9427)" class="st6" style="font-family:'DrukTextWideCyr-Bold'; font-size:115.1228px;">EPIC HERO</text>
	<text transform="matrix(0.9398 0 0 1 135.7119 29.7331)" class="st6 st10 st11">indie game development studio</text>
</g>
<g>
	<g>
		<polygon class="st5" points="960,117.25 276.68,117.25 276.68,159.51 822.55,159.51 		"/>
		<polygon class="st5" points="960,111.72 276.68,111.72 276.68,69.46 822.55,69.46 		"/>
		<path class="st5" d="M263.8,170.81h-26.07c-4.46,0-8.07-3.61-8.07-8.07V66.23c0-4.46,3.61-8.07,8.07-8.07h26.07
			c4.46,0,8.07,3.61,8.07,8.07v96.52C271.87,167.2,268.26,170.81,263.8,170.81z"/>
		<rect x="165.05" y="100.91" class="st5" width="59.81" height="27.15"/>
	</g>
	<path class="st5" d="M155.18,135.12H140.6c-2.7,0-4.89-2.19-4.89-4.89v-31.5c0-2.7,2.19-4.89,4.89-4.89h14.58
		c2.7,0,4.89,2.19,4.89,4.89v31.5C160.07,132.94,157.88,135.12,155.18,135.12z"/>
</g>
<g class="st2">
	<path class="st12" d="M1483.06-417.37h-161.39c-19.86,0-35.96-16.1-35.96-35.96v0c0-19.86,16.1-35.96,35.96-35.96h161.39
		c19.86,0,35.96,16.1,35.96,35.96v0C1519.03-433.47,1502.92-417.37,1483.06-417.37z"/>
	<text transform="matrix(0.9398 0 0 1 1352.8689 -437.2792)" class="st6 st10" style="font-size:49.7587px;">log in</text>
</g>
<g class="st2">
	<path class="st12" d="M1769.73-417.37h-161.39c-19.86,0-35.96-16.1-35.96-35.96v0c0-19.86,16.1-35.96,35.96-35.96h161.39
		c19.86,0,35.96,16.1,35.96,35.96v0C1805.69-433.47,1789.59-417.37,1769.73-417.37z"/>
	<text transform="matrix(0.9398 0 0 1 1630.8171 -437.2792)" class="st6 st10" style="font-size:49.7587px;">games</text>
</g>
<g class="st2">
	<path class="st12" d="M1194.63-417.37h-161.39c-19.86,0-35.96-16.1-35.96-35.96v0c0-19.86,16.1-35.96,35.96-35.96h161.39
		c19.86,0,35.96,16.1,35.96,35.96v0C1230.6-433.47,1214.5-417.37,1194.63-417.37z"/>
	<text transform="matrix(0.9398 0 0 1 1036.1052 -437.2792)" class="st6 st10" style="font-size:49.7587px;">contacts</text>
</g>
<g class="st2">
	<path class="st12" d="M898.38-417.37H736.98c-19.86,0-35.96-16.1-35.96-35.96v0c0-19.86,16.1-35.96,35.96-35.96h161.39
		c19.86,0,35.96,16.1,35.96,35.96v0C934.34-433.47,918.24-417.37,898.38-417.37z"/>
	<text transform="matrix(0.9398 0 0 1 743.4242 -437.2791)" class="st6 st10" style="font-size:49.7587px;">support</text>
</g>
<g class="st2">
	<path class="st12" d="M1691.68,343.71h-483.88c-19.86,0-35.96-16.1-35.96-35.96v-499.19c0-19.86,16.1-35.96,35.96-35.96h483.88
		c19.86,0,35.96,16.1,35.96,35.96v499.19C1727.64,327.61,1711.54,343.71,1691.68,343.71z"/>
	<text transform="matrix(0.9398 0 0 1 1411.0232 -124.1034)" class="st4"><tspan x="0" y="0" class="st5" style="font-family:'DrukTextWideCyr-Medium'; font-size:41.8726px;">Join </tspan><tspan x="-99.42" y="50.25" class="st5" style="font-family:'DrukTextWideCyr-Medium'; font-size:41.8726px;">to </tspan><tspan x="-53.7" y="50.25" style="fill:#210089; font-family:'DrukTextWideCyr-Medium'; font-size:41.8726px;">Aiven`s story </tspan><tspan x="-53.62" y="100.49" class="st5" style="font-family:'DrukTextWideCyr-Medium'; font-size:41.8726px;">open beta</tspan></text>
</g>
<g class="st2">
	<path class="st12" d="M1640.1,117.25h-380.73c-19.86,0-35.96-16.1-35.96-35.96v0c0-19.86,16.1-35.96,35.96-35.96h380.73
		c19.86,0,35.96,16.1,35.96,35.96v0C1676.06,101.14,1659.96,117.25,1640.1,117.25z"/>
	<text transform="matrix(0.9398 0 0 1 1397.5538 97.3346)" class="st6 st10" style="font-size:49.7587px;">email</text>
</g>
<g class="st2">
	<path class="st13" d="M1554.96,268.81h-220.67c-19.86,0-35.96-16.1-35.96-35.96v0c0-19.86,16.1-35.96,35.96-35.96h220.67
		c19.86,0,35.96,16.1,35.96,35.96v0C1590.93,252.71,1574.83,268.81,1554.96,268.81z"/>
	<text transform="matrix(0.9398 0 0 1 1412.5027 248.9034)" class="st6 st10" style="font-size:49.7587px;">join</text>
</g>
</svg>
